<svg class="img-fluid" id="outputsvg" xmlns="http://www.w3.org/2000/svg" width="2048" height="2048" viewBox="0 0 20480 20480"><g id="lJd3O1C4XdYHF7IkVeRyiR" fill="#F2F2F5" style="transform: none;"><g style="transform: none;"><path id="pV9gzIbu2" d="M0 10240 l0 -10240 10240 0 10240 0 0 10240 0 10240 -10240 0 -10240 0 0 -10240z m14808 2525 l-3 -1006 35 3 c22 2 38 10 45 23 12 23 47 78 55 85 3 3 23 27 45 55 58 72 150 161 225 216 36 27 70 52 75 57 44 34 181 105 271 139 175 67 347 97 554 96 356 0 722 -104 1028 -292 45 -27 87 -55 94 -61 7 -6 44 -33 82 -62 77 -57 266 -241 312 -303 16 -22 32 -42 35 -45 21 -17 140 -209 189 -303 53 -104 122 -271 141 -342 4 -16 14 -55 22 -85 29 -111 49 -230 67 -386 30 -270 -28 -748 -120 -989 -78 -202 -104 -257 -184 -392 -98 -163 -270 -372 -387 -468 -297 -245 -623 -391 -999 -446 -110 -16 -413 -16 -510 0 -231 38 -400 103 -564 214 -151 102 -349 315 -417 449 -17 34 -24 38 -57 38 l-37 0 3 -1000 3 -1000 -506 0 -505 0 0 2338 c0 1286 -3 2819 -7 3405 l-6 1067 512 0 512 0 -3 -1005z m-3553 -346 c325 -50 566 -170 791 -394 44 -44 100 -106 123 -137 40 -54 46 -58 83 -58 l39 0 -3 240 -3 240 518 0 517 0 1 -367 c0 -203 0 -543 0 -758 0 -214 -1 -936 -1 -1602 l0 -1213 -515 0 -515 0 -1 198 c-1 108 0 230 1 270 l2 73 -43 -3 c-37 -3 -45 -8 -62 -38 -11 -19 -22 -37 -26 -40 -3 -3 -14 -17 -23 -31 -40 -63 -174 -198 -273 -276 -43 -33 -183 -120 -225 -140 -133 -61 -224 -89 -400 -125 -86 -17 -450 -17 -545 1 -147 27 -304 72 -392 112 -24 10 -46 19 -51 19 -20 0 -321 167 -342 190 -3 3 -21 17 -40 30 -19 13 -37 27 -40 30 -3 3 -25 21 -50 40 -58 44 -247 233 -285 285 -17 22 -40 51 -52 65 -13 14 -23 28 -23 32 0 3 -6 13 -13 20 -18 19 -82 127 -145 244 -17 31 -68 146 -81 184 -7 19 -17 44 -21 55 -12 30 -26 74 -40 125 -7 25 -16 56 -20 70 -34 108 -70 402 -70 565 0 99 14 260 30 358 25 145 32 184 40 207 4 14 13 45 20 70 14 51 28 96 40 125 4 11 18 47 31 80 27 73 140 299 151 303 4 2 8 8 8 14 0 8 96 154 110 168 3 3 21 25 40 50 44 58 242 256 300 300 25 19 47 37 50 41 19 23 213 142 318 195 236 117 471 182 712 198 84 5 297 -3 375 -15z m-2028 -105 c71 -6 80 -9 72 -23 -5 -9 -24 -50 -42 -91 -19 -41 -50 -109 -69 -150 -20 -41 -45 -95 -56 -120 -11 -25 -38 -83 -60 -130 -22 -47 -49 -105 -60 -130 -11 -25 -45 -97 -75 -160 -52 -110 -76 -162 -133 -287 -14 -32 -41 -91 -60 -130 -69 -148 -102 -220 -133 -285 -17 -38 -45 -98 -62 -135 -31 -67 -73 -158 -129 -278 -16 -33 -56 -118 -89 -188 -34 -71 -61 -130 -61 -132 0 -2 -27 -62 -61 -132 -113 -237 -139 -293 -139 -297 0 -2 -24 -55 -54 -118 -30 -62 -67 -142 -84 -178 -16 -36 -52 -112 -80 -170 -77 -163 -188 -399 -220 -470 -11 -25 -40 -88 -65 -140 -25 -52 -57 -121 -71 -152 -14 -32 -41 -91 -60 -130 -18 -40 -48 -103 -65 -140 -17 -38 -44 -97 -61 -133 -16 -36 -43 -94 -60 -130 -16 -36 -43 -94 -60 -130 -16 -36 -43 -94 -60 -130 -16 -36 -44 -95 -61 -132 -17 -38 -47 -102 -66 -143 -19 -41 -49 -104 -65 -140 -17 -36 -50 -107 -74 -157 l-44 -93 -495 0 c-306 0 -495 4 -495 10 0 5 20 51 44 102 24 51 58 123 75 161 17 37 44 95 60 130 16 34 40 87 54 117 58 129 136 296 201 432 25 54 46 99 46 102 0 2 26 60 58 128 33 67 69 146 82 173 45 98 103 221 145 310 58 122 126 265 168 355 19 41 57 122 85 180 27 58 61 130 75 160 13 30 39 85 56 123 17 37 45 97 61 133 17 37 46 100 65 140 50 106 103 220 135 289 15 33 44 96 65 140 40 85 137 297 175 380 53 119 71 156 123 265 30 63 66 140 80 170 14 30 49 107 80 170 30 63 64 135 75 160 11 25 39 86 62 135 23 50 51 110 62 135 11 25 33 72 48 105 30 65 72 155 121 263 17 37 55 117 83 177 29 61 63 134 76 163 l24 52 415 0 c229 0 453 -3 498 -6z m-5877 -919 l0 -915 34 0 c25 0 38 7 57 32 38 50 72 92 89 108 9 8 31 35 50 60 19 25 41 52 50 60 8 8 31 35 51 60 20 25 47 56 59 70 12 14 39 45 59 70 20 25 41 51 48 58 7 7 29 34 50 60 21 26 40 49 43 52 3 3 25 30 50 60 25 30 50 61 57 68 7 7 29 34 50 60 21 26 43 53 50 60 7 7 29 34 50 60 21 26 43 53 50 60 7 7 29 34 50 60 21 26 45 54 53 62 9 8 31 35 50 60 19 25 37 47 40 50 3 3 25 30 50 60 25 30 47 57 50 60 3 3 21 25 40 50 19 25 41 52 50 60 8 8 27 31 42 52 15 20 33 42 40 50 8 7 29 33 48 58 19 25 41 52 50 60 9 8 31 35 50 60 19 25 44 55 54 67 l20 23 593 0 c326 0 593 -3 593 -7 0 -5 -15 -24 -33 -43 -18 -19 -48 -55 -67 -80 -19 -25 -40 -51 -47 -58 -7 -7 -29 -34 -50 -60 -21 -26 -40 -49 -43 -52 -3 -3 -25 -30 -50 -60 -25 -30 -47 -57 -50 -60 -3 -3 -21 -25 -40 -50 -19 -25 -40 -51 -47 -58 -7 -7 -29 -34 -50 -60 -21 -26 -44 -53 -51 -60 -7 -8 -25 -30 -40 -50 -15 -21 -29 -39 -32 -42 -9 -9 -65 -75 -100 -120 -43 -54 -192 -233 -200 -240 -3 -3 -22 -26 -43 -52 -21 -26 -43 -53 -50 -60 -7 -7 -28 -33 -47 -58 -19 -25 -40 -51 -47 -58 -7 -7 -29 -34 -50 -60 -21 -26 -40 -49 -43 -52 -3 -3 -22 -26 -43 -52 -21 -26 -43 -53 -50 -60 -7 -7 -28 -33 -47 -58 -19 -25 -40 -51 -47 -58 -7 -7 -29 -34 -50 -60 -21 -26 -40 -49 -43 -52 -3 -3 -25 -30 -50 -60 -25 -30 -47 -57 -50 -60 -3 -3 -25 -30 -50 -60 -25 -30 -51 -61 -57 -68 -27 -28 -15 -73 34 -131 26 -31 50 -58 53 -61 3 -3 30 -34 60 -70 30 -36 64 -74 76 -86 11 -12 38 -43 60 -70 21 -27 48 -58 60 -70 11 -12 38 -43 60 -70 21 -27 48 -58 60 -70 11 -12 38 -44 60 -70 21 -27 46 -56 54 -64 8 -8 40 -44 70 -80 30 -36 62 -72 70 -80 8 -8 32 -36 53 -62 21 -26 43 -53 50 -60 7 -7 37 -42 67 -78 30 -36 60 -71 67 -78 7 -7 29 -34 50 -60 21 -25 47 -56 59 -68 11 -12 38 -43 60 -70 21 -27 48 -58 59 -70 11 -11 36 -40 55 -64 19 -24 44 -53 55 -64 11 -12 45 -50 75 -86 66 -77 102 -118 154 -177 l39 -43 -569 0 c-313 0 -573 4 -579 8 -5 4 -28 28 -50 53 -22 25 -73 82 -113 126 -40 45 -83 94 -95 110 -12 15 -28 35 -37 43 -9 8 -40 44 -70 80 -30 36 -66 76 -80 90 -14 14 -50 54 -80 90 -30 36 -62 72 -70 80 -8 8 -40 44 -70 80 -30 36 -62 72 -70 80 -8 8 -40 44 -70 80 -30 36 -62 72 -70 80 -8 8 -40 44 -70 80 -30 35 -70 80 -88 100 -19 19 -50 55 -70 80 -21 25 -48 56 -62 70 -14 14 -50 54 -80 90 -30 36 -60 70 -66 76 -5 6 -30 35 -55 64 -24 29 -51 61 -60 71 -11 13 -29 19 -55 19 l-39 0 3 -1535 2 -1535 -520 0 -520 0 0 2668 c0 1468 3 2672 7 2675 3 4 237 7 520 7 l513 0 0 -915z"></path><path id="pIfCFPitE" d="M11720 13387 c-47 -15 -123 -94 -138 -144 -16 -52 -15 -174 0 -227 16 -54 90 -128 144 -144 57 -17 151 -15 207 4 51 17 110 75 133 130 19 46 19 201 -1 248 -24 57 -80 113 -132 130 -53 18 -161 19 -213 3z"></path><path id="pCoZp7ISb" d="M10170 13130 l0 -260 106 0 c123 0 169 11 219 52 62 51 80 99 80 208 0 78 -4 102 -22 135 -52 97 -114 125 -274 125 l-109 0 0 -260z"></path><path id="p0IvtjYU3" d="M15730 11579 c-164 -27 -234 -48 -368 -110 -136 -63 -283 -180 -352 -279 -13 -19 -27 -37 -30 -40 -12 -11 -67 -109 -97 -171 -34 -70 -81 -201 -93 -259 -4 -19 -16 -71 -26 -115 -23 -101 -26 -463 -6 -565 34 -166 57 -241 112 -357 149 -314 385 -494 740 -562 239 -46 472 -36 725 33 85 24 259 110 295 146 3 3 23 18 44 34 22 17 57 48 78 70 39 41 138 178 138 191 0 4 8 19 18 33 37 54 109 259 130 372 53 284 42 550 -34 802 -21 70 -32 100 -68 178 -57 126 -191 288 -319 387 -102 79 -253 148 -422 192 -111 29 -346 39 -465 20z"></path><path id="p1CBtplztr" d="M10885 11545 c-125 -31 -265 -92 -339 -148 -6 -4 -34 -24 -62 -45 -101 -74 -172 -149 -250 -267 -44 -65 -104 -186 -104 -207 0 -8 -4 -18 -9 -24 -10 -11 -43 -139 -62 -239 -9 -45 -14 -145 -13 -280 1 -285 29 -432 125 -633 136 -288 363 -479 664 -560 148 -40 449 -52 605 -24 223 40 426 137 545 259 140 145 238 345 297 608 25 115 36 420 19 545 -50 357 -171 598 -406 809 -90 81 -278 172 -410 200 -27 6 -71 15 -97 21 -26 5 -129 10 -230 9 -155 -1 -197 -4 -273 -24z"></path></g></g><g id="l7RJgxkCX0WOosOdoMore7F" fill="#494F66" style="transform: none;"><g style="transform: none;"><path id="pwt9atdgO" d="M13768 10368 c2 -1888 5 -3434 6 -3435 1 -1 240 -3 531 -4 l530 -2 0 1002 c0 550 3 1001 7 1001 4 0 16 -17 27 -38 49 -96 195 -268 321 -377 97 -85 261 -177 395 -223 28 -9 48 -14 150 -41 146 -37 508 -49 685 -22 379 57 702 201 999 446 117 96 289 305 387 468 80 135 106 190 184 392 95 249 153 754 120 1049 -18 156 -38 275 -67 386 -8 30 -18 69 -22 85 -19 71 -88 238 -141 342 -49 94 -168 286 -189 303 -3 3 -19 23 -35 45 -46 62 -235 246 -312 303 -38 29 -75 56 -82 62 -7 6 -49 34 -94 61 -226 139 -476 228 -788 280 -100 17 -445 17 -535 0 -234 -44 -374 -93 -540 -192 -22 -13 -44 -27 -50 -31 -5 -5 -39 -30 -75 -57 -75 -55 -167 -144 -225 -216 -22 -28 -42 -52 -45 -55 -14 -14 -50 -70 -50 -78 0 -5 -6 -14 -12 -20 -10 -8 -12 191 -10 994 l2 1004 -538 0 -539 0 5 -3432z m2273 1182 c197 -24 410 -107 546 -213 128 -99 262 -261 319 -387 36 -78 47 -108 68 -178 102 -336 86 -668 -46 -1007 -17 -44 -40 -92 -50 -107 -10 -14 -18 -29 -18 -33 0 -13 -99 -150 -138 -191 -21 -22 -56 -53 -78 -70 -21 -16 -41 -31 -44 -34 -30 -31 -166 -101 -245 -128 -132 -44 -210 -60 -354 -73 -266 -23 -563 46 -755 174 -157 105 -259 227 -346 410 -55 116 -79 193 -112 357 -20 100 -16 405 7 505 9 44 21 96 25 115 12 58 59 189 93 259 30 62 85 160 97 171 3 3 17 21 30 40 13 19 49 60 80 90 223 223 586 341 921 300z"></path><path id="pYyGL2tB" d="M7680 13477 c-62 -18 -111 -43 -151 -77 l-34 -29 42 -42 42 -43 45 33 c111 79 276 58 276 -37 0 -42 -34 -67 -137 -101 -166 -53 -214 -95 -221 -191 -5 -74 11 -121 54 -159 76 -67 216 -78 332 -26 93 42 98 51 55 107 l-36 46 -45 -29 c-101 -64 -232 -42 -232 40 0 40 23 56 138 95 122 41 165 66 199 117 22 34 25 46 21 108 -3 59 -8 76 -34 108 -44 55 -111 85 -198 89 -39 2 -91 -2 -116 -9z"></path><path id="pMassC3vX" d="M9292 13471 c-70 -24 -136 -88 -162 -159 -18 -47 -20 -78 -20 -292 l0 -240 64 0 65 0 3 233 c3 209 5 236 23 271 11 22 32 48 46 59 65 47 179 26 221 -41 22 -35 23 -49 28 -277 l5 -240 68 -3 67 -3 0 220 c0 247 -8 301 -53 368 -73 109 -219 151 -355 104z"></path><path id="pS04WB56F" d="M11723 13476 c-321 -105 -349 -532 -45 -674 49 -23 70 -27 147 -27 80 1 97 4 156 33 78 38 140 100 177 180 23 48 27 71 27 142 0 76 -4 93 -32 151 -62 125 -175 200 -313 206 -45 2 -92 -3 -117 -11z m180 -122 c52 -17 108 -73 132 -130 19 -46 19 -144 1 -188 -23 -55 -82 -113 -133 -130 -91 -31 -166 -14 -233 54 -95 95 -96 242 -1 339 67 69 142 86 234 55z"></path><path id="pp3xSCbj4" d="M12640 13477 c-62 -18 -111 -43 -151 -77 l-34 -29 42 -42 42 -43 45 33 c111 79 276 58 276 -37 0 -42 -34 -67 -137 -101 -166 -53 -214 -95 -221 -191 -5 -74 11 -121 54 -159 76 -67 216 -78 332 -26 93 42 98 51 55 107 l-36 46 -45 -29 c-101 -64 -232 -42 -232 40 0 40 23 56 138 95 122 41 165 66 199 117 22 34 25 46 21 108 -3 59 -8 76 -34 108 -44 55 -111 85 -198 89 -39 2 -91 -2 -116 -9z"></path><path id="pVKmLpCnU" d="M8470 13190 l0 -290 -100 0 -100 0 0 -60 0 -60 270 0 270 0 0 60 0 60 -100 0 -100 0 0 290 0 290 -70 0 -70 0 0 -290z"></path><path id="ph52kAJUs" d="M10060 13130 l0 -350 153 0 c213 0 302 29 382 123 64 74 80 120 80 227 0 107 -20 162 -83 231 -82 92 -169 119 -379 119 l-153 0 0 -350z m341 215 c90 -32 143 -112 143 -215 0 -77 -25 -133 -79 -178 -47 -39 -96 -52 -189 -52 l-76 0 0 230 0 230 79 0 c45 0 97 -7 122 -15z"></path><path id="p14HVZzFsf" d="M11002 13133 l3 -348 68 -3 67 -3 0 351 0 350 -70 0 -70 0 2 -347z"></path><path id="p5OJG2eZl" d="M10850 12464 c-243 -16 -476 -81 -712 -198 -105 -53 -299 -172 -318 -195 -3 -4 -25 -22 -50 -41 -58 -44 -256 -242 -300 -300 -19 -25 -37 -47 -40 -50 -14 -14 -110 -160 -110 -168 0 -6 -4 -12 -8 -14 -11 -4 -124 -230 -151 -303 -13 -33 -27 -69 -31 -80 -12 -29 -26 -74 -40 -125 -7 -25 -16 -56 -20 -70 -8 -23 -15 -62 -40 -207 -30 -178 -38 -429 -20 -615 15 -146 41 -306 60 -368 4 -14 13 -45 20 -70 14 -51 28 -95 40 -125 4 -11 14 -36 21 -55 13 -38 64 -153 81 -184 63 -117 127 -225 145 -244 7 -7 13 -17 13 -20 0 -4 10 -18 23 -32 12 -14 35 -43 52 -65 38 -52 227 -241 285 -285 25 -19 47 -37 50 -40 3 -3 21 -17 40 -30 19 -13 37 -27 40 -30 21 -23 322 -190 342 -190 5 0 27 -9 51 -19 63 -29 147 -55 282 -89 114 -29 202 -37 420 -37 151 0 252 5 295 13 176 36 267 64 400 125 42 20 182 107 225 140 99 78 233 213 273 276 9 14 20 28 23 31 4 3 15 20 26 39 10 19 24 36 29 38 7 2 10 -85 8 -267 l-2 -270 549 2 549 3 2 1998 3 1997 -542 0 c-299 0 -546 -1 -550 -2 -5 -2 -8 -110 -7 -240 0 -131 -3 -238 -7 -238 -3 0 -26 26 -50 58 -55 73 -186 204 -264 263 -190 144 -383 225 -645 268 -70 11 -351 21 -440 15z m508 -934 c26 -6 70 -15 97 -21 132 -28 320 -119 410 -200 235 -211 356 -453 406 -809 11 -85 8 -340 -5 -410 -32 -163 -60 -266 -95 -345 -138 -308 -303 -463 -591 -553 -143 -45 -220 -56 -390 -56 -177 -1 -268 13 -420 66 -242 83 -449 276 -569 530 -53 111 -76 181 -102 313 -29 143 -32 433 -6 565 22 108 48 202 58 214 5 6 9 16 9 24 0 21 60 142 104 207 78 118 149 193 250 267 28 21 56 41 62 45 5 4 21 14 35 22 192 112 325 149 547 150 84 1 174 -4 200 -9z"></path><path id="pgrnaEm3h" d="M5540 12343 l-635 -3 -20 -23 c-11 -12 -36 -42 -55 -67 -19 -25 -41 -52 -50 -60 -9 -8 -31 -35 -50 -60 -19 -25 -40 -51 -48 -58 -7 -8 -25 -30 -40 -50 -15 -21 -34 -44 -42 -52 -9 -8 -31 -35 -50 -60 -19 -25 -37 -47 -40 -50 -3 -3 -25 -30 -50 -60 -25 -30 -47 -57 -50 -60 -3 -3 -21 -25 -40 -50 -19 -25 -41 -52 -50 -60 -8 -8 -32 -36 -53 -62 -21 -26 -43 -53 -50 -60 -7 -7 -29 -34 -50 -60 -21 -26 -43 -53 -50 -60 -7 -7 -29 -34 -50 -60 -21 -26 -43 -53 -50 -60 -7 -7 -32 -38 -57 -68 -25 -30 -47 -57 -50 -60 -3 -3 -22 -26 -43 -52 -21 -26 -43 -53 -50 -60 -7 -7 -28 -33 -48 -58 -20 -25 -47 -56 -59 -70 -12 -14 -39 -45 -59 -70 -20 -25 -43 -52 -51 -60 -9 -8 -31 -35 -50 -60 -19 -25 -45 -55 -57 -67 -12 -13 -34 -40 -50 -60 -15 -21 -36 -47 -46 -57 -16 -19 -17 23 -17 897 l0 917 -548 -2 -547 -3 -3 -2702 -2 -2703 550 0 550 0 -2 1535 c-2 883 1 1535 6 1535 5 0 16 -9 25 -19 9 -10 36 -42 60 -71 25 -29 50 -58 55 -64 6 -6 36 -40 66 -76 30 -36 66 -76 80 -90 14 -14 41 -45 62 -70 20 -25 51 -61 70 -80 18 -20 58 -65 88 -100 30 -36 62 -72 70 -80 8 -8 40 -44 70 -80 30 -36 62 -72 70 -80 8 -8 40 -44 70 -80 30 -36 62 -72 70 -80 8 -8 40 -44 70 -80 30 -36 66 -76 80 -90 14 -14 50 -54 80 -90 30 -36 61 -72 70 -80 9 -8 25 -28 37 -43 12 -16 55 -65 95 -110 40 -44 91 -101 113 -126 22 -25 45 -49 52 -54 14 -9 1253 -15 1253 -6 0 4 -18 26 -41 50 -22 24 -57 64 -77 89 -20 25 -44 52 -52 60 -8 8 -40 44 -70 80 -30 36 -64 74 -75 86 -11 11 -36 40 -55 64 -19 24 -44 53 -55 64 -11 12 -38 43 -59 70 -22 27 -49 58 -60 70 -12 12 -38 43 -59 68 -21 26 -43 53 -50 60 -7 7 -37 42 -67 78 -30 36 -60 71 -67 78 -7 7 -29 34 -50 60 -21 26 -45 54 -53 62 -8 8 -40 44 -70 80 -30 36 -62 72 -70 80 -8 8 -33 37 -54 64 -22 26 -49 58 -60 70 -12 12 -39 43 -60 70 -22 27 -49 58 -60 70 -12 12 -39 43 -60 70 -22 27 -49 58 -60 70 -12 12 -46 50 -76 86 -30 36 -57 67 -60 70 -3 3 -27 30 -53 61 -39 47 -45 59 -35 70 7 8 33 39 58 69 25 30 47 57 50 60 3 3 25 30 50 60 25 30 47 57 50 60 3 3 22 26 43 52 21 26 43 53 50 60 7 7 28 33 47 58 19 25 40 51 47 58 7 7 29 34 50 60 21 26 40 49 43 52 3 3 22 26 43 52 21 26 43 53 50 60 7 7 28 33 47 58 19 25 40 51 47 58 7 7 29 34 50 60 21 26 40 49 43 52 8 7 157 186 200 240 35 45 91 111 100 120 3 3 17 21 32 42 15 20 33 42 40 50 7 7 30 34 51 60 21 26 43 53 50 60 7 7 28 33 47 58 19 25 37 47 40 50 3 3 25 30 50 60 25 30 47 57 50 60 3 3 22 26 43 52 21 26 43 53 50 60 7 7 28 33 47 58 19 25 40 51 47 58 7 7 29 34 50 60 21 26 44 53 51 60 16 18 15 22 -5 20 -10 -2 -304 -4 -653 -5z"></path><path id="p44aH51Kh" fill="#8d97ff" d="M8260 12298 c-13 -29 -47 -102 -76 -163 -28 -60 -66 -140 -83 -177 -49 -108 -91 -198 -121 -263 -15 -33 -37 -80 -48 -105 -11 -25 -39 -85 -62 -135 -23 -49 -51 -110 -62 -135 -11 -25 -45 -97 -75 -160 -31 -63 -66 -140 -80 -170 -14 -30 -50 -107 -80 -170 -52 -109 -70 -146 -123 -265 -38 -83 -135 -295 -175 -380 -21 -44 -50 -107 -65 -140 -32 -69 -85 -183 -135 -289 -19 -40 -48 -103 -65 -140 -16 -36 -44 -96 -61 -133 -17 -38 -43 -93 -56 -123 -14 -30 -48 -102 -75 -160 -28 -58 -66 -139 -85 -180 -42 -90 -110 -233 -168 -355 -42 -89 -100 -212 -145 -310 -13 -27 -49 -106 -82 -173 -32 -68 -58 -126 -58 -128 0 -3 -21 -48 -46 -102 -65 -136 -143 -303 -201 -432 -14 -30 -38 -83 -54 -117 -16 -35 -43 -93 -60 -130 -17 -38 -47 -101 -65 -141 -59 -125 -84 -181 -84 -186 0 -3 243 -6 540 -6 l540 0 44 92 c24 51 57 122 74 158 16 36 46 99 65 140 19 41 49 105 66 143 17 37 45 96 61 132 17 36 44 94 60 130 17 36 44 94 60 130 17 36 44 94 60 130 17 36 44 95 61 133 17 37 47 100 65 140 19 39 46 98 60 130 14 31 46 100 71 152 25 52 54 115 65 140 32 71 143 307 220 470 28 58 64 134 80 170 17 36 54 116 84 178 30 63 54 116 54 118 0 4 26 60 139 297 34 70 61 130 61 132 0 2 27 61 61 132 33 70 73 155 89 188 56 120 98 211 129 277 17 38 45 98 62 135 31 66 64 138 133 286 19 39 46 98 60 130 57 125 81 177 133 287 30 63 64 135 75 160 11 25 38 83 60 130 22 47 49 105 60 130 11 25 36 79 56 120 92 198 142 309 142 319 0 4 -242 9 -538 10 l-538 2 -24 -53z"></path></g></g></svg>